<svg width="201" height="34" fill="none" xmlns="http://www.w3.org/2000/svg"><path fill-rule="evenodd" clip-rule="evenodd" d="M2.345 33.094h53.716c0-16.5-.11-33-.11-33H2.308C1.512.094.84.744.74 1.609.288 5.541-.689 16.796.775 31.547c.087.88.763 1.547 1.57 1.547" fill="#4D5E6C"/><path d="M57.429 33.094h19.143v-33H57.429v33zm20.508 0h19.142v-33H77.938v33zm39.655 0H98.449v-33h19.143v33zm1.369 0h19.143v-33h-19.143v33zm39.651 0H139.47v-33h19.142v33zm1.368 0h19.143v-33H159.98v33zm20.551 0h17.994c.851 0 1.564-.668 1.656-1.547 1.544-14.751.513-26.006.036-29.938-.106-.865-.813-1.515-1.654-1.515h-18.032s-.097 16.5 0 33z" fill="#207CBA"/><path d="M62.896 6.969H71.1v2.75h-2.775v16.5h-2.654v-16.5h-2.775v-2.75z" fill="#fff"/><path fill-rule="evenodd" clip-rule="evenodd" d="M88.87 26.004c-.015-.049-.03-.096-.04-.143-.072-.22-.12-.522-.12-1.045-.024-.247-.024-.577-.024-.962v-3.025c0-1.788-.504-2.448-1.727-2.448h-.912v7.838h-2.639V6.969h3.983c2.758 0 3.91 1.457 3.91 4.427v1.513c0 1.98-.576 3.272-1.728 3.905 1.344.632 1.752 2.09 1.752 4.097v2.97c0 .963.024 1.595.287 2.338h-2.686a1.683 1.683 0 00-.056-.215zM86.048 9.72v5.912h1.032c.984 0 1.583-.495 1.583-2.035V11.7c0-1.402-.408-1.98-1.343-1.98h-1.272z" fill="#fff"/><path d="M106.649 6.969V21.63c0 1.384.701 1.846 1.43 1.846.73 0 1.305-.462 1.305-1.846V6.969h2.741V21.44c0 3.068-1.857 4.779-4.108 4.779-2.251 0-4.067-1.71-4.067-4.779V6.97h2.699zm24.614 12.018v2.5c0 3.038-1.167 4.732-3.418 4.732-2.251 0-3.418-1.694-3.418-4.732V11.7c0-3.039 1.167-4.732 3.418-4.732 2.251 0 3.418 1.693 3.418 4.731v1.829h-2.167v-2.017c0-1.37-.459-1.855-1.188-1.855-.73 0-1.188.484-1.188 1.855v10.163c0 1.371.458 1.828 1.188 1.828.729 0 1.188-.457 1.188-1.828v-2.688h2.167zm16.918-.441l-.767 1.76v5.913h-2.479V6.969h2.479v8.387l3.246-8.387h2.479l-3.448 8.58 3.448 10.67h-2.547l-2.411-7.673zm20.001 7.673h2.734V6.969h-2.734v19.25zm20.105-13.943V26.22h-2.328V6.969h3.244l2.657 11.522V6.97h2.304v19.25h-2.657l-3.22-13.943zM10.405 18.547l-.843 1.76v5.912H6.837V6.97h2.725v8.387L13.13 6.97h2.725l-3.79 8.58 3.79 10.67h-2.8l-2.65-7.672zm11.464-3.465h3.741v2.75h-3.741v5.637h4.707v2.75h-7.433V6.97h7.433v2.75H21.87v5.363zm10.938 0h3.741v2.75h-3.74v5.637h4.707v2.75h-7.433V6.97h7.433v2.75h-4.708v5.363z" fill="#fff"/><path fill-rule="evenodd" clip-rule="evenodd" d="M45.034 6.969c2.75 0 4.064 1.65 4.064 4.757v2.503c0 3.107-1.313 4.758-4.064 4.758h-1.288v7.232h-2.725V6.97h4.013zm-1.29 2.75v6.517h1.288c.868 0 1.339-.412 1.339-1.815v-2.887c0-1.403-.471-1.815-1.339-1.815h-1.288z" fill="#fff"/></svg>